HIERARCHY
ROOT joint_Root
{
	OFFSET 0.0 0.0 0.0
	CHANNELS 6 Xposition Yposition Zposition Zrotation Xrotation Yrotation 
	JOINT Hips
	{
		OFFSET 4.5925 91.4895 -427.239
		CHANNELS 6 Xposition Yposition Zposition Zrotation Xrotation Yrotation 
		JOINT Spine
		{
			OFFSET 15.7357 0.0 0.0
			CHANNELS 6 Xposition Yposition Zposition Zrotation Xrotation Yrotation 
			JOINT Chest
			{
				OFFSET 8.98455 -0.406207 0.0
				CHANNELS 6 Xposition Yposition Zposition Zrotation Xrotation Yrotation 
				JOINT Neck
				{
					OFFSET 16.3773 0.0 0.0
					CHANNELS 6 Xposition Yposition Zposition Zrotation Xrotation Yrotation 
					JOINT Head
					{
						OFFSET 6.45672 0.0 0.0
						CHANNELS 6 Xposition Yposition Zposition Zrotation Xrotation Yrotation 
						End Site
						{
							OFFSET 0.0 0.0 0.0
						}
					}
				}
				JOINT Shoulder_L
				{
					OFFSET 12.9942 -0.242716 4.98039
					CHANNELS 6 Xposition Yposition Zposition Zrotation Xrotation Yrotation 
					JOINT UpperArm_L
					{
						OFFSET 5.34809 0.0 0.0
						CHANNELS 6 Xposition Yposition Zposition Zrotation Xrotation Yrotation 
						JOINT LowerArm_L
						{
							OFFSET 24.3286 1.87007e-05 0.0
							CHANNELS 6 Xposition Yposition Zposition Zrotation Xrotation Yrotation 
							JOINT Hand_L
							{
								OFFSET 22.2916 0.0 0.0
								CHANNELS 6 Xposition Yposition Zposition Zrotation Xrotation Yrotation 
								End Site
								{
									OFFSET 0.0 0.0 0.0
								}
							}
						}
					}
				}
				JOINT Shoulder_R
				{
					OFFSET 12.9945 -0.242716 -4.98039
					CHANNELS 6 Xposition Yposition Zposition Zrotation Xrotation Yrotation 
					JOINT UpperArm_R
					{
						OFFSET -5.34813 0.0 0.0
						CHANNELS 6 Xposition Yposition Zposition Zrotation Xrotation Yrotation 
						JOINT LowerArm_R
						{
							OFFSET -24.3289 0.000322201 0.0
							CHANNELS 6 Xposition Yposition Zposition Zrotation Xrotation Yrotation 
							JOINT Hand_R
							{
								OFFSET -22.2915 -0.000108084 0.0
								CHANNELS 6 Xposition Yposition Zposition Zrotation Xrotation Yrotation 
								End Site
								{
									OFFSET 0.0 0.0 0.0
								}
							}
						}
					}
				}
			}
		}
		JOINT UpperLeg_L
		{
			OFFSET -2.19248 -6.46944 0.0
			CHANNELS 6 Xposition Yposition Zposition Zrotation Xrotation Yrotation 
			JOINT LowerLeg_L
			{
				OFFSET 39.0811 0.0 -1.23785e-05
				CHANNELS 6 Xposition Yposition Zposition Zrotation Xrotation Yrotation 
				JOINT Foot_L
				{
					OFFSET 40.9854 0.0 -1.26872e-05
					CHANNELS 6 Xposition Yposition Zposition Zrotation Xrotation Yrotation 
					JOINT Toes_L
					{
						OFFSET 11.7543 0.0 0.0
						CHANNELS 6 Xposition Yposition Zposition Zrotation Xrotation Yrotation 
						End Site
						{
							OFFSET 0.0 0.0 0.0
						}
					}
				}
			}
		}
		JOINT UpperLeg_R
		{
			OFFSET -2.19251 6.46944 0.0
			CHANNELS 6 Xposition Yposition Zposition Zrotation Xrotation Yrotation 
			JOINT LowerLeg_R
			{
				OFFSET -39.0811 -0.00228153 -0.0401928
				CHANNELS 6 Xposition Yposition Zposition Zrotation Xrotation Yrotation 
				JOINT Foot_R
				{
					OFFSET -40.9854 0.0 0.0
					CHANNELS 6 Xposition Yposition Zposition Zrotation Xrotation Yrotation 
					JOINT Toes_R
					{
						OFFSET -11.7543 0.0 0.0
						CHANNELS 6 Xposition Yposition Zposition Zrotation Xrotation Yrotation 
						End Site
						{
							OFFSET 0.0 0.0 0.0
						}
					}
				}
			}
		}
	}
}
MOTION
Frames:	8
Frame Time:	0.0333333
0.000000 0.000000 0.000000 0.000000 0.000000 -0.000000 -1.576370 91.798400 0.399543 89.196600 -8.870670 4.540180 15.735700 0.000005 -0.000001 80.076800 85.307800 -76.051000 8.984550 -0.406207 -0.000000 1.556060 -1.834110 8.070080 16.377300 -0.000001 -0.000001 7.247060 0.907090 -1.884510 6.456720 -0.000001 -0.000000 0.860915 1.323960 -0.787366 12.994200 -0.242716 4.980390 -84.959200 -10.111600 -63.325300 5.348090 -0.000007 -0.000001 -40.302700 -60.113300 -72.188000 24.328600 0.000019 0.000005 0.098106 0.047004 -64.200900 22.291600 -0.000001 0.000005 15.486400 5.428360 -3.883050 12.994500 -0.242716 -4.980390 87.560700 8.145740 -73.266600 -5.348130 -0.000001 -0.000004 -58.080000 20.426400 -2.415260 -24.328900 0.000322 -0.000009 1.131690 3.075040 -20.233900 -22.291500 -0.000108 -0.000004 18.849100 5.422030 -3.667490 -2.192480 -6.469440 -0.000000 -173.851000 -18.105200 -0.384708 39.081100 -0.000007 -0.000012 -0.139123 0.314025 23.895000 40.985400 -0.000006 -0.000013 -0.891654 6.082390 -67.991300 11.754300 -0.000000 0.000003 -0.000176 -0.001663 -16.640500 -2.192510 6.469440 -0.000001 175.763000 21.548500 178.859000 -39.081100 -0.002282 -0.040193 -0.100793 0.235099 23.884900 -40.985400 0.000008 0.000006 5.001700 20.368400 -68.687100 -11.754300 -0.000006 -0.000006 -0.206230 -0.248706 -16.415100
0.000000 0.000000 0.000000 0.000000 0.000000 -0.000000 -1.738710 91.893000 0.292529 89.113500 -8.100960 4.437700 15.735700 0.000005 -0.000001 79.961000 85.299600 -76.134300 8.984550 -0.406207 -0.000000 1.564770 -1.844610 7.672300 16.377300 -0.000001 -0.000001 6.536820 0.660191 -1.673410 6.456720 -0.000001 -0.000000 0.709470 1.339530 -1.174190 12.994200 -0.242716 4.980390 -85.875800 -8.632070 -64.340600 5.348090 -0.000007 -0.000001 -36.295000 -55.897900 -62.419400 24.328600 0.000019 0.000005 0.356057 0.090017 -75.787600 22.291600 -0.000001 0.000005 15.280700 5.415370 -3.443590 12.994500 -0.242716 -4.980390 87.480900 8.380800 -73.203700 -5.348130 -0.000001 -0.000004 -58.268600 20.934200 -2.542260 -24.328900 0.000322 -0.000009 0.873243 2.340910 -20.487100 -22.291500 -0.000108 -0.000004 18.922200 5.421560 -3.651760 -2.192480 -6.469440 -0.000000 -173.779000 -17.479700 -0.442505 39.081100 -0.000007 -0.000012 -0.132622 0.306400 23.405000 40.985400 -0.000006 -0.000013 -0.975254 6.252650 -67.588500 11.754300 -0.000000 0.000003 -0.000184 -0.001729 -16.642900 -2.192510 6.469440 -0.000001 175.769000 22.756600 179.276000 -39.081100 -0.002282 -0.040193 -0.113315 0.274344 23.031800 -40.985400 0.000008 0.000006 4.408800 20.920000 -68.061700 -11.754300 -0.000006 -0.000006 -0.056807 -0.068455 -16.530500
0.000000 0.000000 0.000000 0.000000 0.000000 -0.000000 -1.878360 91.996300 0.162319 89.095000 -7.227080 4.230240 15.735700 0.000005 -0.000001 80.203900 85.329200 -76.627900 8.984550 -0.406207 -0.000000 1.505890 -1.783650 7.169680 16.377300 -0.000001 -0.000001 5.769790 0.349980 -1.474230 6.456720 -0.000001 -0.000000 0.594841 1.068260 -1.266820 12.994200 -0.242716 4.980390 -86.801800 -7.074490 -65.598700 5.348090 -0.000007 -0.000001 -32.948300 -49.889900 -52.516000 24.328600 0.000019 0.000005 1.116590 0.060314 -86.814500 22.291600 -0.000001 0.000005 14.959200 5.409730 -3.256000 12.994500 -0.242716 -4.980390 87.398900 8.578650 -73.062100 -5.348130 -0.000001 -0.000004 -58.664300 21.659800 -2.649100 -24.328900 0.000322 -0.000009 0.726320 1.928860 -20.666000 -22.291500 -0.000108 -0.000004 18.744100 5.423650 -3.722350 -2.192480 -6.469440 -0.000000 -173.766000 -17.082000 -0.607358 39.081100 -0.000007 -0.000012 -0.129093 0.306683 22.828000 40.985400 -0.000006 -0.000013 -0.994118 6.722610 -67.102600 11.754300 -0.000000 0.000003 -0.000203 -0.001873 -16.648200 -2.192510 6.469440 -0.000001 175.796000 24.098200 179.529000 -39.081100 -0.002282 -0.040193 -0.109382 0.275175 22.272000 -40.985400 0.000008 0.000006 4.374170 21.388100 -67.687500 -11.754300 -0.000006 -0.000006 -0.000002 -0.000028 -16.574900
0.000000 0.000000 0.000000 0.000000 0.000000 -0.000000 -2.000470 92.071400 0.050421 89.113900 -6.264940 4.109960 15.735700 0.000005 -0.000001 80.372500 85.311000 -77.092100 8.984550 -0.406207 -0.000000 1.539010 -1.745600 6.578970 16.377300 -0.000001 -0.000001 4.843380 -0.041489 -1.125920 6.456720 -0.000001 -0.000000 0.542802 0.819198 -1.309910 12.994200 -0.242716 4.980390 -87.786000 -5.248030 -67.090000 5.348090 -0.000007 -0.000001 -30.522300 -42.021300 -43.137900 24.328600 0.000019 0.000005 2.563160 -0.263024 -95.821900 22.291600 -0.000001 0.000005 14.012700 5.406230 -3.140760 12.994500 -0.242716 -4.980390 87.346600 8.756370 -73.068100 -5.348130 -0.000001 -0.000004 -59.260200 22.492700 -2.639100 -24.328900 0.000322 -0.000009 0.627604 1.643630 -20.934900 -22.291500 -0.000108 -0.000004 18.504200 5.425920 -3.799510 -2.192480 -6.469440 -0.000000 -173.742000 -16.826900 -0.759726 39.081100 -0.000007 -0.000012 -0.121073 0.293657 22.406100 40.985400 -0.000006 -0.000013 -0.950102 7.437050 -66.696400 11.754300 -0.000000 0.000003 -0.000200 -0.001849 -16.647300 -2.192510 6.469440 -0.000001 175.807000 25.150100 179.747000 -39.081100 -0.002282 -0.040193 -0.108268 0.279862 21.738200 -40.985400 0.000008 0.000006 4.393990 21.491700 -67.452900 -11.754300 -0.000006 -0.000006 -0.000001 -0.000020 -16.574600
0.000000 0.000000 0.000000 0.000000 0.000000 -0.000000 -2.089970 92.130300 -0.096717 89.117500 -5.352570 3.926890 15.735700 0.000005 -0.000001 80.284200 85.276000 -77.323500 8.984550 -0.406207 -0.000000 1.599480 -1.752770 5.941000 16.377300 -0.000001 -0.000001 3.803010 -0.384550 -0.738588 6.456720 -0.000001 -0.000000 0.513795 0.473469 -1.116180 12.994200 -0.242716 4.980390 -88.806000 -2.996320 -68.265700 5.348090 -0.000007 -0.000001 -29.113400 -32.023500 -35.195700 24.328600 0.000019 0.000005 4.264060 -0.833369 -101.028000 22.291600 -0.000001 0.000005 13.232800 5.405380 -3.115480 12.994500 -0.242716 -4.980390 87.319900 8.957370 -73.266900 -5.348130 -0.000001 -0.000004 -59.866800 23.509000 -2.607950 -24.328900 0.000322 -0.000009 0.469500 1.204160 -21.346900 -22.291500 -0.000108 -0.000004 18.138700 5.427670 -3.859210 -2.192480 -6.469440 -0.000000 -173.762000 -16.499800 -1.077390 39.081100 -0.000007 -0.000012 -0.120170 0.295463 22.132500 40.985400 -0.000006 -0.000013 -0.907622 8.014010 -66.349400 11.754300 -0.000000 0.000003 -0.000203 -0.001877 -16.648300 -2.192510 6.469440 -0.000001 175.910000 25.958000 179.785000 -39.081100 -0.002282 -0.040193 -0.105762 0.279396 21.326600 -40.985400 0.000008 0.000006 4.371170 21.376700 -67.234200 -11.754300 -0.000006 -0.000006 -0.000002 -0.000037 -16.575300
0.000000 0.000000 0.000000 0.000000 0.000000 -0.000000 -2.149070 92.169400 -0.228310 89.100100 -4.598050 3.793870 15.735700 0.000005 -0.000001 80.489400 85.218600 -77.877100 8.984550 -0.406207 -0.000000 1.710530 -1.717060 5.245830 16.377300 -0.000001 -0.000001 2.962280 -0.814151 -0.194807 6.456720 -0.000001 -0.000000 0.333371 0.213048 -1.021900 12.994200 -0.242716 4.980390 -89.823000 -0.466768 -69.264000 5.348090 -0.000007 -0.000001 -29.553400 -21.057800 -28.979000 24.328600 0.000019 0.000005 7.584590 -1.561920 -101.575000 22.291600 -0.000001 0.000005 11.839200 5.411210 -3.306040 12.994500 -0.242716 -4.980390 87.298000 9.229730 -73.603800 -5.348130 -0.000001 -0.000004 -60.528600 24.433500 -2.508700 -24.328900 0.000322 -0.000009 0.442456 1.105650 -21.860500 -22.291500 -0.000108 -0.000004 17.935600 5.428650 -3.893060 -2.192480 -6.469440 -0.000000 -173.821000 -16.027100 -1.400920 39.081100 -0.000007 -0.000012 -0.118308 0.292619 22.014000 40.985400 -0.000006 -0.000013 -0.888746 8.249270 -66.110100 11.754300 -0.000000 0.000003 -0.000229 -0.002076 -16.655600 -2.192510 6.469440 -0.000001 176.033000 26.439700 179.771000 -39.081100 -0.002282 -0.040193 -0.106953 0.286526 21.049800 -40.985400 0.000008 0.000006 4.308820 21.105900 -67.050500 -11.754300 -0.000006 -0.000006 -0.000002 -0.000032 -16.575100
0.000000 0.000000 0.000000 0.000000 0.000000 -0.000000 -2.165190 92.204500 -0.328863 89.011800 -4.092840 3.702560 15.735700 0.000005 -0.000001 81.979700 85.212400 -79.704300 8.984550 -0.406207 -0.000000 1.748970 -1.454570 4.569000 16.377300 -0.000001 -0.000001 2.434370 -1.202350 0.287524 6.456720 -0.000001 -0.000000 0.248590 -0.228231 -0.773243 12.994200 -0.242716 4.980390 -90.578500 1.612780 -70.257200 5.348090 -0.000007 -0.000001 -32.656100 -10.397200 -24.031700 24.328600 0.000019 0.000005 10.339600 -1.386640 -97.564400 22.291600 -0.000001 0.000005 10.388800 5.408850 -3.224570 12.994500 -0.242716 -4.980390 87.289700 9.499970 -73.996000 -5.348130 -0.000001 -0.000004 -61.212800 25.277000 -2.141640 -24.328900 0.000322 -0.000009 0.365414 0.885181 -22.492400 -22.291500 -0.000108 -0.000004 17.718400 5.429750 -3.930440 -2.192480 -6.469440 -0.000000 -173.824000 -15.481000 -1.636870 39.081100 -0.000007 -0.000012 -0.119346 0.296322 21.937600 40.985400 -0.000006 -0.000013 -0.906481 8.212710 -65.947900 11.754300 -0.000000 0.000003 -0.000253 -0.002259 -16.662200 -2.192510 6.469440 -0.000001 176.139000 26.994400 179.851000 -39.081100 -0.002282 -0.040193 -0.105567 0.287758 20.726700 -40.985400 0.000008 0.000006 4.279560 21.157500 -66.865100 -11.754300 -0.000006 -0.000006 -0.000004 -0.000057 -16.576100
0.000000 0.000000 0.000000 0.000000 0.000000 -0.000000 -2.161390 92.230700 -0.367900 88.952500 -3.651120 3.684440 15.735700 0.000005 -0.000001 83.556000 85.160000 -81.646700 8.984550 -0.406207 -0.000000 1.875800 -1.183810 3.834540 16.377300 -0.000001 -0.000001 1.975700 -1.526710 0.673113 6.456720 -0.000001 -0.000000 0.227781 -0.719869 -0.182564 12.994200 -0.242716 4.980390 -91.128400 3.335560 -71.294900 5.348090 -0.000007 -0.000001 -37.424400 -1.907580 -19.766900 24.328600 0.000019 0.000005 12.467000 -0.098795 -90.456800 22.291600 -0.000001 0.000005 9.243410 5.409000 -3.232110 12.994500 -0.242716 -4.980390 87.374000 9.734150 -74.822900 -5.348130 -0.000001 -0.000004 -62.001300 25.993800 -1.629250 -24.328900 0.000322 -0.000009 0.178067 0.420437 -23.079000 -22.291500 -0.000108 -0.000004 17.579400 5.433040 -4.043740 -2.192480 -6.469440 -0.000000 -173.856000 -14.886200 -1.741640 39.081100 -0.000007 -0.000012 -0.121644 0.303221 21.859500 40.985400 -0.000006 -0.000013 -0.937694 8.030270 -65.841800 11.754300 -0.000000 0.000003 -0.000251 -0.002238 -16.661400 -2.192510 6.469440 -0.000001 176.123000 27.644300 -179.978000 -39.081100 -0.002282 -0.040193 -0.102445 0.283440 20.463200 -40.985400 0.000008 0.000006 4.274160 21.370100 -66.744800 -11.754300 -0.000006 -0.000006 -0.000003 -0.000050 -16.575800
